<svg xmlns="http://www.w3.org/2000/svg" width="800" height="300" version="1.0" viewBox="0 0 800 300"><g fill="#333"><path d="M28.34 56.68h28.34V36.12H28.34a7.79 7.79 0 1 1 0-15.58h19.84v9.05h8.5V12H28.34a16.29 16.29 0 0 0 0 32.58h19.84v3.56H28.34a19.84 19.84 0 0 1 0-39.68h28.34V0H28.34a28.34 28.34 0 0 0 0 56.68z" transform="translate(40, 40) scale(4,4)"/><g><path d="M28.95-58.70L49.98-58.70L49.98-48.22L33.70-48.22Q27.37-48.22 24.46-47.34Q21.56-46.46 19.62-43.91L19.62-43.91Q18.30-42.15 17.82-40.39Q17.34-38.63 16.98-34.41L16.98-34.41L49.98-34.41L49.98-23.94L16.98-23.94Q17.69-16.37 21.47-13.42Q25.26-10.47 34.32-10.47L34.32-10.47L49.98-10.47L49.98 0L33.70 0Q27.10 0 22.09-0.79L22.09-0.79Q14.17-2.11 9.50-7.74L9.50-7.74Q2.82-15.84 2.82-29.66L2.82-29.66Q2.82-44.97 12.23-53.50L12.23-53.50Q15.49-56.41 19.14-57.55Q22.79-58.70 28.95-58.70L28.95-58.70Z" transform="translate(280, 260) scale(2,2) translate(0 0)"/><path d="M28.51-22.26L18.48-22.26L18.48 0L5.98 0L5.98-58.70L34.67-58.70Q46.99-58.70 51.83-55.53L51.83-55.53Q55.18-53.42 56.98-49.94Q58.78-46.46 58.78-42.33L58.78-42.33Q58.78-33.97 54.56-29.39L54.56-29.39Q51.92-26.66 47.61-25.26L47.61-25.26Q51.04-24.02 52.80-22.66Q54.56-21.30 55.97-18.66L55.97-18.66Q57.02-16.54 57.51-14.61Q57.99-12.67 58.26-8.89L58.26-8.89Q58.78-2.55 59.66 0L59.66 0L45.67 0Q45.06-2.02 44.35-8.36L44.35-8.36Q43.91-13.46 42.55-16.19Q41.18-18.92 38.46-20.50L38.46-20.50Q35.02-22.35 28.51-22.26L28.51-22.26ZM18.48-48.22L18.48-32.74L35.99-32.74Q40.39-32.74 42.24-34.06L42.24-34.06Q45.06-35.99 45.06-40.83L45.06-40.83Q45.06-46.20 40.83-47.70L40.83-47.70Q39.34-48.22 35.99-48.22L35.99-48.22L18.48-48.22Z" transform="translate(280, 260) scale(2,2) translate(58.855999999999995 0)"/><path d="M19.01 0L19.01-48.22L0.35-48.22L0.35-58.70L50.95-58.70L50.95-48.22L31.50-48.22L31.50 0L19.01 0Z" transform="translate(280, 260) scale(2,2) translate(126.68799999999999 0)"/><path d="M5.98 0L5.98-58.70L30.89-58.70Q40.22-58.70 45.32-56.85L45.32-56.85Q54.74-53.42 57.90-44.26L57.90-44.26Q60.28-37.22 60.28-29.22L60.28-29.22Q60.28-21.30 57.99-14.26L57.99-14.26Q55.70-7.04 50.42-3.61L50.42-3.61Q47.08-1.50 43.08-0.75Q39.07 0 30.89 0L30.89 0L5.98 0ZM30.89-48.22L18.48-48.22L18.48-10.47L30.89-10.47Q39.07-10.47 42.24-14.08L42.24-14.08Q44.18-16.37 45.36-20.50Q46.55-24.64 46.55-29.30L46.55-29.30Q46.55-34.50 45.14-38.81Q43.74-43.12 41.45-45.23L41.45-45.23Q38.10-48.22 30.89-48.22L30.89-48.22Z" transform="translate(280, 260) scale(2,2) translate(183.07999999999998 0)"/></g><text x="300" y="100" font-size="50" font-weight="bold">让你的证书永不过期</text></g></svg>